Coordinates
version=1
nRows=16
nColumns=21
inDegrees=yes

Units are S.I. units (second, meters, Newtons, ...)
If the header above contains a line with 'inDegrees', this indicates whether rotational values are in degrees (yes) or radians (no).

endheader
time	sternoclavicular_r2	sternoclavicular_r3	unrotscap_r3	unrotscap_r2	acromioclavicular_r2	acromioclavicular_r3	acromioclavicular_r1	unrothum_r1	unrothum_r3	unrothum_r2	elv_angle	shoulder_elev	shoulder1_r2	shoulder_rot	elbow_flexion	pro_sup	deviation	flexion	wrist_hand_r1	wrist_hand_r3
      2.01005025	    -14.07312700	      5.96071238	     -5.96071238	     14.07312700	     -2.84952195	     23.02883404	     10.35130241	    -10.35130241	    -23.02883404	      2.84952195	    129.99688113	     58.15328700	   -129.99688113	     19.88658458	      0.01432415	      0.00000000	      0.00000000	     -0.00000000	     -0.00000000	      0.00000000
      2.03015075	    -14.15365695	      5.99482107	     -5.99482107	     14.15365695	     -2.86582763	     23.16061079	     10.41053516	    -10.41053516	    -23.16061079	      2.86582763	    129.99702072	     58.48605466	   -129.99702072	     19.88767109	      0.01372117	      0.00000000	      0.00000000	     -0.00000000	     -0.00000000	      0.00000000
      2.05025126	    -14.23446541	      6.02904772	     -6.02904772	     14.23446541	     -2.88218969	     23.29284327	     10.46997275	    -10.46997275	    -23.29284327	      2.88218969	    129.99714921	     58.81997315	   -129.99714921	     19.88889892	      0.01316650	      0.00000000	      0.00000000	     -0.00000000	     -0.00000000	      0.00000000
      2.07035176	    -14.31552684	      6.06338151	     -6.06338151	     14.31552684	     -2.89860299	     23.42548972	     10.52959641	    -10.52959641	    -23.42548972	      2.89860299	    129.99726782	     59.15493701	   -129.99726782	     19.89012227	      0.01265460	      0.00000000	      0.00000000	     -0.00000000	     -0.00000000	      0.00000000
      2.09045226	    -14.39679850	      6.09780435	     -6.09780435	     14.39679850	     -2.91505884	     23.55848017	     10.58937470	    -10.58937470	    -23.55848017	      2.91505884	    129.99737763	     59.49076954	   -129.99737763	     19.89090286	      0.01217995	      0.00000000	      0.00000000	     -0.00000000	     -0.00000000	      0.00000000
      2.11055276	    -14.47822113	      6.13229114	     -6.13229114	     14.47822113	     -2.93154527	     23.69171767	     10.64926404	    -10.64926404	    -23.69171767	      2.93154527	    129.99747953	     59.82722594	   -129.99747953	     19.89123528	      0.01173863	      0.00000000	      0.00000000	     -0.00000000	     -0.00000000	      0.00000000
      2.13065327	    -14.55979660	      6.16684265	     -6.16684265	     14.55979660	     -2.94806264	     23.82520527	     10.70926580	    -10.70926580	    -23.82520527	      2.94806264	    129.99757427	     60.16431389	   -129.99757427	     19.89138964	      0.01132820	      0.00000000	      0.00000000	     -0.00000000	     -0.00000000	      0.00000000
      2.15075377	    -14.64145697	      6.20143013	     -6.20143013	     14.64145697	     -2.96459721	     23.95883180	     10.76933000	    -10.76933000	    -23.95883180	      2.96459721	    129.99766254	     60.50175269	   -129.99766254	     19.89152474	      0.01094567	      0.00000000	      0.00000000	     -0.00000000	     -0.00000000	      0.00000000
      2.17085427	    -14.72318230	      6.23604513	     -6.23604513	     14.72318230	     -2.98114492	     24.09256463	     10.82944199	    -10.82944199	    -24.09256463	      2.98114492	    129.99774492	     60.83945992	   -129.99774492	     19.89180818	      0.01058875	      0.00000000	      0.00000000	     -0.00000000	     -0.00000000	      0.00000000
      2.19095477	    -14.80484915	      6.27063535	     -6.27063535	     14.80484915	     -2.99768080	     24.22620176	     10.88951096	    -10.88951096	    -24.22620176	      2.99768080	    129.99782165	     61.17692548	   -129.99782165	     19.89770962	      0.01025699	      0.00000000	      0.00000000	     -0.00000000	     -0.00000000	      0.00000000
      2.21105528	    -14.88659100	      6.30525734	     -6.30525734	     14.88659100	     -3.01423186	     24.35996162	     10.94963510	    -10.94963510	    -24.35996162	      3.01423186	    129.99789384	     61.51470095	   -129.99789384	     19.89815114	      0.00994446	      0.00000000	      0.00000000	     -0.00000000	     -0.00000000	      0.00000000
      2.23115578	    -14.96820785	      6.33982638	     -6.33982638	     14.96820785	     -3.03075761	     24.49351693	     11.00966729	    -11.00966729	    -24.49351693	      3.03075761	    129.99796158	     61.85195991	   -129.99796158	     19.89883853	      0.00965075	      0.00000000	      0.00000000	     -0.00000000	     -0.00000000	      0.00000000
      2.25125628	    -15.04981561	      6.37439158	     -6.37439158	     15.04981561	     -3.04728152	     24.62705738	     11.06969280	    -11.06969280	    -24.62705738	      3.04728152	    129.99802516	     62.18918132	   -129.99802516	     19.89967787	      0.00937535	      0.00000000	      0.00000000	     -0.00000000	     -0.00000000	      0.00000000
      2.27135678	    -15.13126772	      6.40889085	     -6.40889085	     15.13126772	     -3.06377392	     24.76034312	     11.12960383	    -11.12960383	    -24.76034312	      3.06377392	    129.99808497	     62.52575954	   -129.99808497	     19.90076785	      0.00911604	      0.00000000	      0.00000000	     -0.00000000	     -0.00000000	      0.00000000
      2.29145729	    -15.21259647	      6.44333787	     -6.44333787	     15.21259647	     -3.08024134	     24.89342699	     11.18942411	    -11.18942411	    -24.89342699	      3.08024134	    129.99814129	     62.86182799	   -129.99814129	     19.90183487	      0.00887191	      0.00000000	      0.00000000	     -0.00000000	     -0.00000000	      0.00000000
      2.31155779	    -15.29369098	      6.47768568	     -6.47768568	     15.29369098	     -3.09666133	     25.02612756	     11.24907210	    -11.24907210	    -25.02612756	      3.09666133	    129.99819440	     63.19692852	   -129.99819440	     19.90317235	      0.00864146	      0.00000000	      0.00000000	     -0.00000000	     -0.00000000	      0.00000000
